{"title":"My Fair Lady [1964] Proper HDTVRip XviD AC3 - CODY","uid":6702512,"size":2408440976,"categoryP":"video","categoryS":"hd___movies","magnet":"?xt=urn:btih:e90814ba19bcfb50412054537639410fb28a9c3a&amp;dn=My+Fair+Lady+%5B1964%5D+Proper+HDTVRip+XviD+AC3+-+CODY&amp;tr=udp%3A%2F%2Ftracker.openbittorrent.com%3A80&amp;tr=udp%3A%2F%2Fopen.demonii.com%3A1337&amp;tr=udp%3A%2F%2Ftracker.coppersurfer.tk%3A6969&amp;tr=udp%3A%2F%2Fexodus.desync.com%3A6969","seeders":0,"leechers":0,"uploader":"CODYBOSS1969","files":4,"time":1317035432,"description":"General\nComplete name                    : My Fair Lady [1964] Proper HDTVRip XviD AC3 - CODY.avi\nFormat                           : AVI\nFormat/Info                      : Audio Video Interleave\nFormat profile                   : OpenDML\nFile size                        : 2.24 GiB\nDuration                         : 2h 51mn\nOverall bit rate                 : 1 873 Kbps\nWriting application              : VirtualDubMod 1.5.10.2 (build 2540/release)\nWriting library                  : VirtualDubMod build 2540/release\n\nVideo\nID                               : 0\nFormat                           : MPEG-4 Visual\nFormat profile                   : Advanced Simple@L5\nFormat settings, BVOP            : 4\nFormat settings, QPel            : No\nFormat settings, GMC             : No warppoints\nFormat settings, Matrix          : Default (H.263)\nCodec ID                         : XVID\nCodec ID/Hint                    : XviD\nDuration                         : 2h 51mn\nBit rate                         : 1 478 Kbps\nWidth                            : 1 280 pixels\nHeight                           : 528 pixels\nDisplay aspect ratio             : 2.40:1\nFrame rate                       : 23.976 fps\nColor space                      : YUV\nChroma subsampling               : 4:2:0\nBit depth                        : 8 bits\nScan type                        : Progressive\nCompression mode                 : Lossy\nBits/(Pixel*Frame)               : 0.091\nStream size                      : 1.77 GiB (79%)\nWriting library                  : XviD 1.2.0.dev47 (UTC 2006-11-01)\n\nAudio\nID                               : 1\nFormat                           : AC-3\nFormat/Info                      : Audio Coding 3\nMode extension                   : CM (complete main)\nCodec ID                         : 2000\nDuration                         : 2h 51mn\nBit rate mode                    : Constant\nBit rate                         : 384 Kbps\nChannel(s)                       : 6 channels\nChannel positions                : Front: L C R, Side: L R, LFE\nSampling rate                    : 48.0 KHz\nBit depth                        : 16 bits\nCompression mode                 : Lossy\nStream size                      : 471 MiB (20%)\nAlignment                        : Split accross interleaves\nInterleave, duration             : 42 ms (1.00 video frame)\nInterleave, preload duration     : 500 ms\n\n\n\nIMDB link:                        &lt;a href=&quot; http://www.imdb.com/title/tt0058385/&quot; rel=&quot;nofollow&quot; target=&quot;_NEW&quot;&gt; http://www.imdb.com/title/tt0058385/&lt;/a&gt;\n\n\n\nSubtitles included               : Romanian\n\n \n\n\nPlease seed at least 1,5:1. This way this torent has a chance to survive !!\n\n\n\n\nThanks. ENJOY !\n\n\n\n_ _ _ _ _ _ _ _ _ _ _ _ _ _ _ _ _ _ _ _ _ _ _ _ _ _\n\n***Proper = Standard settings for HD Rip [.avi]\n\n_ _ _ _ _ _ _ _ _ _ _ _ _ _ _ _ _ _ _ _ _ _ _ _ _ _","torrent":{"xt":"urn:btih:e90814ba19bcfb50412054537639410fb28a9c3a","amp;dn":"My+Fair+Lady+%5B1964%5D+Proper+HDTVRip+XviD+AC3+-+CODY","amp;tr":["udp%3A%2F%2Ftracker.openbittorrent.com%3A80","udp%3A%2F%2Fopen.demonii.com%3A1337","udp%3A%2F%2Ftracker.coppersurfer.tk%3A6969","udp%3A%2F%2Fexodus.desync.com%3A6969"],"infoHash":"e90814ba19bcfb50412054537639410fb28a9c3a","infoHashBuffer":{"type":"Buffer","data":[233,8,20,186,25,188,251,80,65,32,84,83,118,57,65,15,178,138,156,58]},"announce":[],"urlList":[]}}